<?xml version="1.0" encoding="UTF-8" standalone="no"?>
<svg width="60px" height="60px" viewBox="0 0 60 60" version="1.1" xmlns="http://www.w3.org/2000/svg" xmlns:sketch="http://www.bohemiancoding.com/sketch/ns">
  <!-- Generator: Sketch 3.2.2 (9983) - http://www.bohemiancoding.com/sketch -->
  <title>Settingscyclop</title>
  <desc>Created with Sketch.</desc>
  <defs></defs>
  <g id="stroked" stroke="none" stroke-width="1" fill="none" fill-rule="evenodd" sketch:type="MSPage">
    <g id="Tech" sketch:type="MSLayerGroup" transform="translate(-358.000000, -1929.000000)" stroke="#0b2347" stroke-width="2" stroke-linecap="round" stroke-linejoin="round">
      <g id="Settingscyclop" transform="translate(364.000000, 1930.000000)" sketch:type="MSShapeGroup">
        <path
          d="M0.970540705,58 C2.96542043,49.0010386 10.0499625,41.9164965 19.0489239,39.9216168 L19.0489239,34.4404037 L19.0489239,34.4404037 C13.0893438,32.6091825 8.47727862,27.700055 7.06763268,21.5679255 L7.06763268,21.5679255 C5.53949777,20.435796 4.54892391,18.6192927 4.54892391,16.5714286 C4.54892391,14.1821325 5.89734178,12.1077763 7.87470049,11.0678371 C10.4708045,4.5816428 16.8140999,0 24.2274953,0 C31.6408908,0 37.9841862,4.5816428 40.5802902,11.0678371 C42.5576489,12.1077763 43.9060668,14.1821325 43.9060668,16.5714286 C43.9060668,18.6192927 42.9154929,20.435796 41.387358,21.5679255 L41.387358,21.5679255 C39.9777121,27.700055 35.3656469,32.6091825 29.4060668,34.4404037 L29.4060668,39.9216168 L29.4060668,39.9216168 C38.4050282,41.9164965 45.4895703,49.0010386 47.48445,58 L0.970540705,58 Z"
          id="Oval-606"></path>
        <path
          d="M19.7578617,20.4178515 L19.1030161,21.0726971 C18.5031093,21.6726039 17.5339275,21.6760631 16.9289322,21.0710678 C16.3281256,20.4702612 16.3278799,19.4964069 16.9273029,18.8969839 L17.5821485,18.2421383 C17.0473958,17.4347452 16.6609251,16.5205764 16.4615663,15.5384615 L15.5361574,15.5384615 C14.6877611,15.5384615 14,14.8555926 14,14 C14,13.1503312 14.6884453,12.4615385 15.5361574,12.4615385 L16.4615663,12.4615385 C16.6609251,11.4794236 17.0473958,10.5652548 17.5821485,9.7578617 L16.9273029,9.10301611 C16.3273961,8.50310932 16.3239369,7.5339275 16.9289322,6.92893219 C17.5297388,6.32812559 18.5035931,6.32787992 19.1030161,6.92730294 L19.7578617,7.58214852 C20.5652548,7.04739575 21.4794236,6.66092513 22.4615385,6.46156633 L22.4615385,5.53615743 C22.4615385,4.68776111 23.1444074,4 24,4 C24.8496688,4 25.5384615,4.68844527 25.5384615,5.53615743 L25.5384615,6.46156633 C26.5205764,6.66092513 27.4347452,7.04739575 28.2421383,7.58214852 L28.8969839,6.92730294 C29.4968907,6.32739614 30.4660725,6.32393687 31.0710678,6.92893219 C31.6718744,7.52973879 31.6721201,8.50359309 31.0726971,9.10301611 L30.4178515,9.7578617 C30.9526042,10.5652548 31.3390749,11.4794236 31.5384337,12.4615385 L32.4638426,12.4615385 C33.3122389,12.4615385 34,13.1444074 34,14 C34,14.8496688 33.3115547,15.5384615 32.4638426,15.5384615 L31.5384337,15.5384615 C31.3390749,16.5205764 30.9526042,17.4347452 30.4178515,18.2421383 L31.0726971,18.8969839 C31.6726039,19.4968907 31.6760631,20.4660725 31.0710678,21.0710678 C30.4702612,21.6718744 29.4964069,21.6721201 28.8969839,21.0726971 L28.2421383,20.4178515 C27.4347452,20.9526042 26.5205764,21.3390749 25.5384615,21.5384337 L25.5384615,22.4638426 C25.5384615,23.3122389 24.8555926,24 24,24 C23.1503312,24 22.4615385,23.3115547 22.4615385,22.4638426 L22.4615385,21.5384337 C21.4794236,21.3390749 20.5652548,20.9526042 19.7578617,20.4178515 L19.7578617,20.4178515 Z M24,16.3076923 C25.2745033,16.3076923 26.3076923,15.2745033 26.3076923,14 C26.3076923,12.7254967 25.2745033,11.6923077 24,11.6923077 C22.7254967,11.6923077 21.6923077,12.7254967 21.6923077,14 C21.6923077,15.2745033 22.7254967,16.3076923 24,16.3076923 Z"
          id="Rectangle-358"></path>
        <path d="M17,26 C17,28.209139 20.3578644,30 24.5,30 C28.6421356,30 32,28.209139 32,26" id="Oval-612"></path>
      </g>
    </g>
  </g>
</svg>
