<?xml version="1.0" encoding="UTF-8" standalone="no"?>
<!-- Created with Inkscape (http://www.inkscape.org/) -->

<svg
  xmlns:dc="http://purl.org/dc/elements/1.1/"
  xmlns:cc="http://creativecommons.org/ns#"
  xmlns:rdf="http://www.w3.org/1999/02/22-rdf-syntax-ns#"
  xmlns="http://www.w3.org/2000/svg"
  xmlns:sodipodi="http://sodipodi.sourceforge.net/DTD/sodipodi-0.dtd"
  xmlns:inkscape="http://www.inkscape.org/namespaces/inkscape"
  width="64px"
  height="64px"
  viewBox="0 0 64 64"
  version="1.1"
  id="SVGRoot"
  inkscape:version="0.92.3 (2405546, 2018-03-11)"
  sodipodi:docname="data-sharing.svg">
  <sodipodi:namedview
     id="base"
     pagecolor="#ffffff"
     bordercolor="#666666"
     borderopacity="1.0"
     inkscape:pageopacity="0.0"
     inkscape:pageshadow="2"
     inkscape:zoom="11.313708"
     inkscape:cx="37.097696"
     inkscape:cy="28.071253"
     inkscape:document-units="px"
     inkscape:current-layer="layer1"
     showgrid="false"
     inkscape:window-width="1920"
     inkscape:window-height="1001"
     inkscape:window-x="-9"
     inkscape:window-y="-9"
     inkscape:window-maximized="1"
     inkscape:grid-bbox="true" />
  <defs
     id="defs7529" />
  <metadata
     id="metadata7532">
    <rdf:RDF>
      <cc:Work
         rdf:about="">
        <dc:format>image/svg+xml</dc:format>
        <dc:type
           rdf:resource="http://purl.org/dc/dcmitype/StillImage" />
        <dc:title></dc:title>
      </cc:Work>
    </rdf:RDF>
  </metadata>
  <g
     id="layer1"
     inkscape:groupmode="layer"
     inkscape:label="Ebene 1">
    <path
       inkscape:connector-curvature="0"
       id="path3604"
       d="m 48.781392,53.124691 c 0.151288,0 0.304439,-0.05166 0.4299,-0.156842 1.926256,-1.592296 2.407821,-4.40603 2.428116,-4.524115 0.0055,-0.0369 0.0092,-0.07381 0.0092,-0.110701 V 34.574338 c 0,-0.13654 -0.04057,-0.273072 -0.118085,-0.385621 -0.948365,-1.387494 -2.031425,-2.090466 -3.219654,-2.090466 -0.852423,0 -1.595983,0.374551 -2.171645,0.806295 -0.0017,-0.131003 -0.04057,-0.260154 -0.116238,-0.369014 -0.948366,-1.387494 -2.031426,-2.090464 -3.217807,-2.090464 -0.867185,0 -1.621817,0.387463 -2.201166,0.828437 -0.01299,-0.09778 -0.03872,-0.193733 -0.09409,-0.278607 -0.710354,-1.123646 -1.594143,-1.732524 -2.621847,-1.810015 -0.889324,-0.06458 -1.703,0.291523 -2.326637,0.699283 -0.0092,0.0055 -0.0203,0 -0.0203,-0.01282 v -2.76392 c 0,-0.0073 0.0055,-0.01111 0.01111,-0.01282 l 0.0055,-1.36535 c -0.0092,0.0019 -0.01658,-0.0055 -0.01658,-0.0147 v -4.756597 c 0,-0.0073 0.0055,-0.01282 0.01282,-0.0147 L 35.11855,19.62219 c 0.108856,0.156825 0.215877,0.321044 0.322889,0.496325 -1.09597,-1.797101 -2.330327,-2.706721 -3.668003,-2.706721 -0.0147,0 -0.02951,0 -0.04611,0 -1.701158,0.02584 -2.97241,1.551706 -3.500101,2.308184 -0.0019,0.0055 -0.0055,0.0073 -0.01111,0.0073 l -0.357943,1.333988 c 0.0073,0 0.01282,0.0073 0.01282,0.0147 v 4.843314 c 0,0.0073 -0.0055,0.0147 -0.0147,0.0147 l 0.0019,1.354283 c 0.0073,0 0.01282,0.0055 0.01282,0.01282 V 42.0451 c -0.04426,0.546142 -0.186351,0.904086 -0.398535,1.009254 -0.313662,0.154997 -0.950208,-0.08857 -1.31738,-0.31551 0,0 -0.0019,-0.0017 -0.0019,-0.0017 l -2.76761,-2.725171 c -0.03505,-0.02767 -0.07196,-0.05904 -0.10701,-0.08673 -2.195636,-1.433615 -4.096062,-1.857983 -5.645922,-1.260183 -1.990829,0.769397 -2.572028,2.918905 -2.596014,3.011156 -0.06089,0.232479 0.0073,0.477874 0.177128,0.649465 l 10.601779,10.599937 c 0.131004,0.132849 0.304437,0.199272 0.477874,0.199272 z m 0,0"
       style="fill:#fde6b3;fill-opacity:1;fill-rule:nonzero;stroke:none;stroke-width:0.47233826" />
    <path
       inkscape:connector-curvature="0"
       id="path4384"
       d="M 49.866294,62.977369 H 13.881865 c -7.210542,0 -13.109234,-5.898692 -13.109234,-13.109232 v -35.98443 c 0,-7.2105366 5.898692,-13.11107621 13.109234,-13.11107621 h 35.984429 c 7.210541,0 13.111075,5.90053961 13.111075,13.11107621 v 35.98443 c 0,7.21054 -5.900534,13.109232 -13.111075,13.109232 z m 0,0"
       style="fill:none;stroke:#35383a;stroke-width:0.47233826;stroke-linecap:butt;stroke-linejoin:miter;stroke-miterlimit:10;stroke-opacity:1" />
    <path
       inkscape:connector-curvature="0"
       id="path4386"
       d="m 31.618537,17.169779 h -0.04614 c -1.701156,0.02584 -2.972412,1.551708 -3.500099,2.310033 -0.0019,0.0019 -0.0055,0.0038 -0.01111,0.0038 -5.782456,-0.234323 -10.238302,-1.221439 -12.476373,-1.821087 -0.01111,-0.0038 -0.01299,-0.0203 0,-0.02768 l 8.664457,-4.566556 c 0.01282,-0.0055 0.02584,-0.01299 0.03689,-0.0203 1.337676,-0.813679 2.221467,-0.147614 3.669845,1.101508 0.675299,0.583044 1.372734,1.184534 2.179029,1.524027 0.08119,0.03505 0.169744,0.04981 0.258313,0.04981 h 0.411449 c 0.08857,0 0.175284,-0.0147 0.256465,-0.04981 0.806297,-0.339493 1.50558,-0.940983 2.180877,-1.524027 1.446535,-1.249113 2.332169,-1.915187 3.668,-1.101508 0.01299,0.0073 0.02582,0.0147 0.0369,0.0203 l 8.627551,4.546256 c 0.01111,0.0073 0.0073,0.02399 -0.0038,0.02768 -3.710439,0.968662 -7.284342,1.500043 -10.609163,1.738059 0.110702,0.156825 0.217719,0.321042 0.324731,0.494476 -1.09597,-1.795254 -2.330324,-2.704873 -3.668,-2.704873 m -3.902312,8.507626 c 0,0.0073 -0.0055,0.0147 -0.0147,0.0147 -4.590539,-0.129158 -8.640471,-3.007466 -9.935712,-4.029635 -1.343212,-1.060915 -2.228846,-2.020352 -2.747308,-2.72886 -0.0073,-0.01111 0.0019,-0.02399 0.0147,-0.02215 2.210392,0.605183 6.743734,1.636582 12.670107,1.907803 0.0073,0 0.01282,0.0055 0.01282,0.0147 z M 43.43241,21.662597 c -1.112576,0.876409 -4.256577,3.125552 -8.029749,3.824835 -0.0092,0.0019 -0.01658,-0.0055 -0.01658,-0.0147 v -4.756599 c 0,-0.0073 0.0055,-0.01282 0.01282,-0.0147 3.389398,-0.260154 7.02419,-0.822898 10.793669,-1.826618 0.01111,-0.0038 0.02215,0.01111 0.0147,0.0203 -0.51293,0.712196 -1.409636,1.688236 -2.774985,2.767604 m 7.94303,12.284485 c -0.948366,-1.387493 -2.031426,-2.090466 -3.219649,-2.090466 -0.852423,0 -1.595987,0.374551 -2.17165,0.806295 -0.0017,-0.131003 -0.04057,-0.260154 -0.114393,-0.369014 -0.950211,-1.387493 -2.033265,-2.090464 -3.219646,-2.090464 -0.867185,0 -1.621823,0.387463 -2.201175,0.828439 -0.01282,-0.09778 -0.04057,-0.193735 -0.09409,-0.278609 -0.71035,-1.123646 -1.594141,-1.732518 -2.623691,-1.810015 -0.887477,-0.06642 -1.701155,0.291523 -2.324787,0.699283 -0.0092,0.0055 -0.0203,-0.0019 -0.0203,-0.01111 v -2.765757 c 0,-0.0055 0.0038,-0.01299 0.01111,-0.01299 4.193846,-0.70666 7.660736,-3.171675 8.872947,-4.12927 1.728832,-1.365352 3.736272,-3.418918 3.828523,-4.797187 0.0017,-0.02032 0.0038,-0.03874 0.0038,-0.0572 0,-0.01282 0.0038,-0.02768 0.0038,-0.04057 0,-0.0073 -0.0017,-0.01282 -0.0017,-0.0203 -0.0017,-0.04797 -0.0073,-0.09778 -0.02215,-0.149442 0,-0.0055 0,-0.01111 -0.0017,-0.01658 0,-0.0019 0,-0.0038 -0.0017,-0.0055 -0.0147,-0.05166 -0.0369,-0.09963 -0.06458,-0.145768 -0.0055,-0.01111 -0.0147,-0.02215 -0.02215,-0.0332 -0.02398,-0.0369 -0.04982,-0.06827 -0.07934,-0.09963 -0.01111,-0.01111 -0.0203,-0.02215 -0.03136,-0.03136 -0.04057,-0.03505 -0.08303,-0.06827 -0.131004,-0.09409 -0.0017,0 -0.0017,-0.0019 -0.0038,-0.0038 L 37.596821,11.880126 c -2.234382,-1.346902 -3.90048,0.09042 -5.240003,1.243582 -0.579351,0.50186 -1.129186,0.97604 -1.693778,1.247265 h -0.127039 c -0.56459,-0.271225 -1.114425,-0.745405 -1.695618,-1.247265 -1.339524,-1.153171 -3.005626,-2.588637 -5.238161,-1.243582 l -10.149738,5.348863 c -0.0073,0.0038 -0.01111,0.0092 -0.01847,0.01299 -0.03872,0.02399 -0.07565,0.04981 -0.110702,0.08119 -0.01111,0.0092 -0.02215,0.01847 -0.03136,0.02768 -0.03874,0.03872 -0.07381,0.07934 -0.101474,0.127312 h -0.0019 c -0.02215,0.03874 -0.04247,0.08119 -0.05904,0.125466 -0.0019,0.0073 -0.0019,0.01658 -0.0055,0.02399 -0.0055,0.01658 -0.0073,0.03136 -0.01111,0.04797 -0.0092,0.04247 -0.01658,0.08303 -0.01847,0.125467 0,0.0092 -0.0038,0.01847 -0.0038,0.02768 0,0.0073 0.0019,0.0147 0.0019,0.0203 0.0019,0.01847 0.0038,0.03689 0.0055,0.05535 0.07196,1.380111 2.092311,3.448439 3.83037,4.819325 1.391183,1.099666 5.749241,4.192002 10.775217,4.321158 0.0073,0 0.01282,0.0073 0.01282,0.0147 v 14.742121 c -0.04426,0.547988 -0.186351,0.90593 -0.400383,1.011097 -0.311814,0.153134 -0.948365,-0.08857 -1.315532,-0.315506 -0.0019,0 -0.0019,-0.0017 -0.0019,-0.0017 L 23.2311,39.770405 c -0.03505,-0.02951 -0.07196,-0.0572 -0.107011,-0.08673 -2.195631,-1.435466 -4.096057,-1.857983 -5.645915,-1.26018 -1.990836,0.769392 -2.57203,2.918902 -2.596019,3.009311 -0.06089,0.232479 0.0055,0.479716 0.177126,0.649463 L 25.661065,52.68405 c 0.131004,0.132849 0.304437,0.197426 0.477874,0.197426 0.186353,0 0.372704,-0.07565 0.509237,-0.230634 0.241706,-0.276765 0.184511,-0.706661 -0.07381,-0.966823 L 16.324579,41.436385 c -0.0038,-0.0055 -0.0055,-0.01111 -0.0038,-0.0147 0.214026,-0.500011 0.710354,-1.380109 1.653185,-1.739899 1.10889,-0.420681 2.573875,-0.05351 4.352521,1.097818 0.0019,0 0.0019,0.0017 0.0019,0.0017 l 2.771298,2.728866 c 0.02951,0.02951 0.06273,0.0572 0.09778,0.08119 0.15498,0.10332 1.55355,1.000031 2.708563,0.439127 0.688211,-0.333955 1.077522,-1.057224 1.162395,-2.149505 0.0019,-0.01658 0.0019,-0.03503 0.0019,-0.05166 V 20.42662 c 0,-0.0038 0,-0.0055 0.0019,-0.0073 0.300747,-0.463114 1.322915,-1.878282 2.522215,-1.896736 0.80445,-0.02768 1.627352,0.623637 2.435494,1.896736 0.0019,0.0019 0.0019,0.0038 0.0019,0.0073 v 16.441436 c 0,0.372704 0.302595,0.677137 0.677144,0.677137 0.372704,0 0.677139,-0.304433 0.677139,-0.677137 v -5.476173 c 0,-0.0038 0.0019,-0.0073 0.0038,-0.0092 0.44651,-0.439128 1.370893,-1.15686 2.243608,-1.088593 0.535075,0.04057 1.029549,0.383774 1.472367,1.020321 0,0.0038 0.0017,0.0073 0.0017,0.0092 v 4.415253 c 0,0.37455 0.302588,0.677143 0.677137,0.677143 0.372704,0 0.675297,-0.302593 0.675297,-0.677143 v -2.830341 c 0,-0.0019 0.0017,-0.0055 0.0038,-0.0073 0.309972,-0.385622 1.184535,-1.345059 2.186411,-1.345059 0.669764,0 1.337676,0.448353 1.979757,1.330299 0.0017,0.0019 0.0038,0.0055 0.0038,0.0092 v 1.278634 c -0.02398,0.101474 -0.02398,0.206647 0,0.306282 v 1.710379 c 0,0.374552 0.30259,0.677145 0.677139,0.677145 0.372704,0 0.677142,-0.302593 0.677142,-0.677145 v -1.656872 c 0,-0.0038 0,-0.0055 0.0017,-0.0092 0.39669,-0.4871 1.256495,-1.315537 2.166117,-1.315537 h 0.0038 c 0.669764,0.0019 1.335831,0.448353 1.977919,1.330297 0.0017,0.0019 0.0017,0.0055 0.0017,0.0092 v 13.481936 c -0.07012,0.354255 -0.538764,2.489002 -1.944708,3.653242 -0.287832,0.238016 -0.328421,0.666073 -0.0904,0.953906 0.134694,0.160516 0.326579,0.243546 0.522154,0.243546 0.151288,0 0.304436,-0.04981 0.431748,-0.154979 1.922567,-1.594143 2.405971,-4.406036 2.426269,-4.525967 0.0055,-0.03503 0.0092,-0.07196 0.0092,-0.108856 V 34.332956 c 0,-0.134695 -0.04057,-0.273074 -0.118084,-0.385623"
       style="fill:#353538;fill-opacity:1;fill-rule:nonzero;stroke:none;stroke-width:0.47233826" />
    <path
       inkscape:connector-curvature="0"
       id="path4388"
       d="m 31.618537,17.169779 h -0.04614 c -1.701156,0.02584 -2.972412,1.551708 -3.500099,2.310033 -0.0019,0.0019 -0.0055,0.0038 -0.01111,0.0038 -5.782456,-0.234323 -10.238302,-1.221439 -12.476373,-1.821087 -0.01111,-0.0038 -0.01299,-0.0203 0,-0.02768 l 8.664457,-4.566556 c 0.01282,-0.0055 0.02584,-0.01299 0.03689,-0.0203 1.337676,-0.813679 2.221467,-0.147614 3.669845,1.101508 0.675299,0.583044 1.372734,1.184534 2.179029,1.524027 0.08119,0.03505 0.169744,0.04981 0.258313,0.04981 h 0.411449 c 0.08857,0 0.175284,-0.0147 0.256465,-0.04981 0.806297,-0.339493 1.50558,-0.940983 2.180877,-1.524027 1.446535,-1.249113 2.332169,-1.915187 3.668,-1.101508 0.01299,0.0073 0.02582,0.0147 0.0369,0.0203 l 8.627551,4.546256 c 0.01111,0.0073 0.0073,0.02399 -0.0038,0.02768 -3.710439,0.968662 -7.284342,1.500043 -10.609163,1.738059 0.110702,0.156825 0.217719,0.321042 0.324731,0.494476 -1.09597,-1.795254 -2.330324,-2.704873 -3.668,-2.704873 m -3.902312,8.507626 c 0,0.0073 -0.0055,0.0147 -0.0147,0.0147 -4.590539,-0.129158 -8.640471,-3.007466 -9.935712,-4.029635 -1.343212,-1.060915 -2.228846,-2.020352 -2.747308,-2.72886 -0.0073,-0.01111 0.0019,-0.02399 0.0147,-0.02215 2.210392,0.605183 6.743734,1.636582 12.670107,1.907803 0.0073,0 0.01282,0.0055 0.01282,0.0147 z M 43.43241,21.662597 c -1.112576,0.876409 -4.256577,3.125552 -8.029749,3.824835 -0.0092,0.0019 -0.01658,-0.0055 -0.01658,-0.0147 v -4.756599 c 0,-0.0073 0.0055,-0.01282 0.01282,-0.0147 3.389398,-0.260154 7.02419,-0.822898 10.793669,-1.826618 0.01111,-0.0038 0.02215,0.01111 0.0147,0.0203 -0.51293,0.712196 -1.409636,1.688236 -2.774985,2.767604"
       style="fill:#ee1e21;fill-opacity:1;fill-rule:nonzero;stroke:none;stroke-width:0.47233826" />
  </g>
</svg>
